# xmcd CD database file
#
# Track frame offsets:
#	182
#	15735
#	29050
#	44557
#	65440
#	82600
#	91935
#	109382
#	133870
#	145170
#	158867
#	177577
#
# Disc length: 2546 seconds
#
# Revision: 2
# Processed by: cddbd v1.4PL0 Copyright (c) Steve Scherf et al.
# Submitted via: CDex 1.40Beta6
#
DISCID=a509f00c
DTITLE=Fleetwood Mac - The Original Fleetwood Mac
DYEAR=1971
DGENRE=Blues
TTITLE0=Drifting
TTITLE1=Leaving Town Blues
TTITLE2=Watch Out
TTITLE3=A Fool No More
TTITLE4=Mean Old Fireman
TTITLE5=Can't Afford To Do It
TTITLE6=Fleetwood Mac
TTITLE7=Worried Dream
TTITLE8=Love That Woman
TTITLE9=Allow Me One More Show
TTITLE10=First Train Home
TTITLE11=Rambling Pony No. 2
EXTD=
EXTT0=
EXTT1=
EXTT2=
EXTT3=
EXTT4=
EXTT5=
EXTT6=
EXTT7=
EXTT8=
EXTT9=
EXTT10=
EXTT11=
PLAYORDER=
